[img]http://img18.imageshack.us/img18/7292/666parkavenue.jpg[/img]

[size=200][color=black]TV INFO[/color][/size]

[code]666 Park Avenue S01E10 The Comfort Of Death x264 AAC-Venom

Format : MPEG-4
Format profile : Base Media / Version 2
Codec ID : mp42
File size : 119 MiB
Duration : 43mn 11s
Overall bit rate mode : Variable
Overall bit rate : 385 Kbps
Encoded date : UTC 2013-01-31 16:46:40
Tagged date : UTC 2013-01-31 17:05:13

Video
ID : 1
Format : AVC
Format/Info : Advanced Video Codec
Format profile : Main@L2.1
Format settings, CABAC : Yes
Format settings, ReFrames : 4 frames
Codec ID : avc1
Codec ID/Info : Advanced Video Coding
Duration : 43mn 11s
Bit rate mode : Variable
Bit rate : 288 Kbps
Width : 640 pixels
Height : 272 pixels
Display aspect ratio : 16:9
Frame rate mode : Variable
Frame rate : 23.976 fps
Minimum frame rate : 23.810 fps
Maximum frame rate : 1 000.000 fps
Color space : YUV
Chroma subsampling : 4:2:0
Bit depth : 8 bits
Scan type : Progressive
Bits/(Pixel*Frame) : 0.069
Stream size : 87.6 MiB (74%)
Writing library : x264 core 112

Audio
ID : 2
Format : AAC
Format/Info : Advanced Audio Codec
Format profile : LC
Codec ID : 40
Duration : 43mn 11s
Bit rate mode : Variable
Bit rate : 96.0 Kbps
Maximum bit rate : 172 Kbps
Channel(s) : 2 channels
Channel positions : Front: L R
Sampling rate : 48.0 KHz
Compression mode : Lossy
Delay relative to video : 83ms
Stream size : 29.6 MiB (25%)
Language : English
Encoded date : UTC 2013-01-31 16:46:40
Tagged date : UTC 2013-01-31 17:05:11[/code]

[size=200][color=black]SOURCE[/color][/size]

[code]666.Park.Avenue.S01E10.The.Comfort.Of.Death.480p.WEB-DL.x264-mSD(THANKS)[/code]

[size=200][color=black]SCREENSHOTS[/color][/size]

[img]http://img18.imageshack.us/img18/4130/666parkavenues01e10thec.jpg[/img]

[img]http://img18.imageshack.us/img18/7292/666parkavenue.jpg[/img]

[size=200][color=black]TV INFO[/color][/size]

[code]666 Park Avenue S01E11 Sins Of Our Father x264 AAC-V3nom

Format : MPEG-4
Format profile : Base Media / Version 2
Codec ID : mp42
File size : 119 MiB
Duration : 43mn 0s
Overall bit rate mode : Variable
Overall bit rate : 388 Kbps
Encoded date : UTC 2013-01-31 17:07:13
Tagged date : UTC 2013-01-31 17:22:09

Video
ID : 1
Format : AVC
Format/Info : Advanced Video Codec
Format profile : Main@L2.1
Format settings, CABAC : Yes
Format settings, ReFrames : 4 frames
Codec ID : avc1
Codec ID/Info : Advanced Video Coding
Duration : 43mn 0s
Bit rate mode : Variable
Bit rate : 290 Kbps
Width : 640 pixels
Height : 272 pixels
Display aspect ratio : 16:9
Frame rate mode : Variable
Frame rate : 23.976 fps
Minimum frame rate : 23.810 fps
Maximum frame rate : 24.390 fps
Color space : YUV
Chroma subsampling : 4:2:0
Bit depth : 8 bits
Scan type : Progressive
Bits/(Pixel*Frame) : 0.069
Stream size : 88.1 MiB (74%)
Writing library : x264 core 112

Audio
ID : 2
Format : AAC
Format/Info : Advanced Audio Codec
Format profile : LC
Codec ID : 40
Duration : 43mn 0s
Bit rate mode : Variable
Bit rate : 96.0 Kbps
Maximum bit rate : 150 Kbps
Channel(s) : 2 channels
Channel positions : Front: L R
Sampling rate : 48.0 KHz
Compression mode : Lossy
Delay relative to video : 83ms
Stream size : 29.5 MiB (25%)
Language : English
Encoded date : UTC 2013-01-31 17:07:13
Tagged date : UTC 2013-01-31 17:22:07[/code]

[size=200][color=black]SOURCE[/color][/size]

[code]666.Park.Avenue.S01E11.Sins.Of.Our.Father.480p.WEB-DL.x264-mSD(THANKS)[/code]

[size=200][color=black]SCREENSHOTS[/color][/size]

[img]http://img593.imageshack.us/img593/4103/666parkavenues01e11sins.jpg[/img]

[img]http://kastatic.com/i2/users/133df62bbf28e62494bb17fe11078f1a.gif[/img][img]http://kastatic.com/i2/users/133df62bbf28e62494bb17fe11078f1a.gif[/img]